<svg xmlns="http://www.w3.org/2000/svg" viewBox="0 0 620 520">
  <defs>
    <linearGradient id="a" x1="70" x2="510" y1="60" y2="470" gradientUnits="userSpaceOnUse"><stop stop-color="#eaf3ff"/><stop offset="1" stop-color="#b9d7ff"/></linearGradient>
    <linearGradient id="b" x1="300" x2="360" y1="70" y2="330" gradientUnits="userSpaceOnUse"><stop stop-color="#ff7a68"/><stop offset="1" stop-color="#f05454"/></linearGradient>
    <filter id="s" x="-20%" y="-20%" width="140%" height="140%"><feDropShadow dx="0" dy="18" stdDeviation="18" flood-color="#0d1b2a" flood-opacity=".18"/></filter>
  </defs>
  <circle cx="320" cy="260" r="220" fill="url(#a)"/>
  <path d="M166 351h287v50H166z" fill="#0d1b2a" opacity=".08"/>
  <g filter="url(#s)">
    <rect x="170" y="110" width="280" height="260" rx="26" fill="#fff"/>
    <rect x="196" y="142" width="142" height="17" rx="8" fill="#0c4da2" opacity=".18"/>
    <rect x="196" y="181" width="196" height="13" rx="6" fill="#637083" opacity=".25"/>
    <rect x="196" y="212" width="162" height="13" rx="6" fill="#637083" opacity=".25"/>
    <rect x="196" y="243" width="190" height="13" rx="6" fill="#637083" opacity=".25"/>
    <rect x="196" y="292" width="108" height="38" rx="19" fill="#0c4da2"/>
    <path d="M391 100l55 24v48c0 44-25 72-55 86-30-14-55-42-55-86v-48l55-24z" fill="#0c4da2"/>
    <path d="M392 132c17 14 25 28 25 42 0 19-11 31-26 31s-26-12-26-31c0-12 6-24 18-37 1 13 6 21 15 25-2-11 0-21 4-30z" fill="url(#b)"/>
  </g>
  <g opacity=".9">
    <rect x="84" y="306" width="100" height="92" rx="22" fill="#fff"/>
    <path d="M120 365h32M134 331v34" stroke="#0c4da2" stroke-width="12" stroke-linecap="round"/>
    <rect x="478" y="252" width="74" height="138" rx="20" fill="#f05454"/>
    <path d="M500 289h31M500 316h31" stroke="#fff" stroke-width="8" stroke-linecap="round"/>
    <rect x="503" y="220" width="26" height="34" rx="7" fill="#0c4da2"/>
  </g>
</svg>
